<?xml version="1.0" encoding="UTF-8" standalone="no"?>
<!-- Created with Inkscape (http://www.inkscape.org/) -->

<svg
   xmlns:dc="http://purl.org/dc/elements/1.1/"
   xmlns:cc="http://creativecommons.org/ns#"
   xmlns:rdf="http://www.w3.org/1999/02/22-rdf-syntax-ns#"
   xmlns:svg="http://www.w3.org/2000/svg"
   xmlns="http://www.w3.org/2000/svg"
   xmlns:sodipodi="http://sodipodi.sourceforge.net/DTD/sodipodi-0.dtd"
   xmlns:inkscape="http://www.inkscape.org/namespaces/inkscape"
   width="210mm"
   height="297mm"
   viewBox="0 0 744.09448819 1052.3622047"
   id="svg2"
   version="1.1"
   inkscape:version="0.91 r13725"
   sodipodi:docname="jessetext.svg">
  <defs
     id="defs4" />
  <sodipodi:namedview
     id="base"
     pagecolor="#ffffff"
     bordercolor="#666666"
     borderopacity="1.0"
     inkscape:pageopacity="0.0"
     inkscape:pageshadow="2"
     inkscape:zoom="0.62050879"
     inkscape:cx="-5.8684328"
     inkscape:cy="526.1811"
     inkscape:document-units="px"
     inkscape:current-layer="layer1"
     showgrid="false"
     inkscape:window-width="1436"
     inkscape:window-height="855"
     inkscape:window-x="4"
     inkscape:window-y="1"
     inkscape:window-maximized="1" />
  <metadata
     id="metadata7">
    <rdf:RDF>
      <cc:Work
         rdf:about="">
        <dc:format>image/svg+xml</dc:format>
        <dc:type
           rdf:resource="http://purl.org/dc/dcmitype/StillImage" />
        <dc:title></dc:title>
      </cc:Work>
    </rdf:RDF>
  </metadata>
  <g
     inkscape:label="Layer 1"
     inkscape:groupmode="layer"
     id="layer1">
    <text
       xml:space="preserve"
       style="font-style:normal;font-weight:normal;font-size:40px;line-height:125%;font-family:sans-serif;letter-spacing:0px;word-spacing:0px;fill:#000000;fill-opacity:1;stroke:none;stroke-width:1px;stroke-linecap:butt;stroke-linejoin:miter;stroke-opacity:1"
       x="185.33179"
       y="322.31613"
       id="text3340"
       sodipodi:linespacing="125%"><tspan
         sodipodi:role="line"
         id="tspan3342"
         x="185.33179"
         y="322.31613" /></text>
    <g
       transform="scale(0.83077928,1.2036891)"
       style="font-style:normal;font-variant:normal;font-weight:normal;font-stretch:normal;font-size:310.56808472px;line-height:125%;font-family:Phosphate;-inkscape-font-specification:'Phosphate, Normal';text-align:start;letter-spacing:0px;word-spacing:0px;writing-mode:lr-tb;text-anchor:start;fill:#000000;fill-opacity:1;stroke:none;stroke-width:1px;stroke-linecap:butt;stroke-linejoin:miter;stroke-opacity:1"
       id="text3344">
      <path
         id="path3370"
         style=""
         d="m 628.31826,292.88954 122.05326,0 0,54.34941 -55.90226,0 0,22.98204 54.97056,0 0,51.5543 -54.97056,0 0,23.91375 58.07624,0 0,54.34941 -124.22724,0 0,-207.14891 z m 101.2452,182.30347 0,-7.45364 -62.11362,0 0,-68.01441 59.00794,0 0,-7.45363 -59.00794,0 0,-67.08271 62.11362,0 0,-7.45363 -70.18839,0 0,157.45802 70.18839,0 z m -220.2607,-2.17398 q 4.34795,0.9317 9.31704,1.55284 4.34795,0.62114 9.00647,1.24227 4.96909,0.31057 9.93818,0.31057 8.69591,0 16.77068,-1.86341 8.38534,-2.17398 14.90727,-6.8325 6.52193,-4.65852 10.24874,-11.80158 4.03739,-7.45364 4.03739,-18.01295 0,-9.00648 -4.65852,-17.08125 -4.34796,-8.07477 -11.49102,-15.5284 -6.8325,-7.45364 -14.90727,-14.28613 -7.7642,-6.8325 -14.90727,-13.665 -6.8325,-7.14307 -11.49102,-13.97556 -4.34795,-7.14307 -4.34795,-14.5967 0,-11.18045 7.14306,-17.08125 7.14307,-6.21136 22.98204,-6.21136 2.48455,0 4.96909,0.31057 2.79512,0 5.27966,0.31057 2.48454,0.31056 4.96909,0.31056 l 0,-8.07477 q -2.17398,0 -4.65852,-0.31056 -2.17398,-0.31057 -4.96909,-0.31057 -2.48455,-0.31057 -5.27966,-0.31057 -16.77068,0 -27.64056,7.7642 -10.86988,7.45364 -10.86988,23.60318 0,8.6959 4.34795,16.46011 4.65852,7.45363 11.49102,14.90726 7.14307,7.14307 14.90727,13.97557 8.07477,6.8325 14.90727,13.97556 7.14306,6.8325 11.49102,14.28613 4.65852,7.45364 4.65852,15.52841 0,14.90727 -10.24875,22.67147 -9.93818,7.7642 -27.64056,7.7642 -10.55931,0 -19.25522,-1.55284 -4.65852,-0.62114 -9.00647,-1.55284 l 0,8.07477 z m -26.08772,-37.26817 q 6.83249,2.17398 14.28613,3.41625 6.21136,1.55284 13.97556,2.48454 8.07477,0.93171 16.14954,0.93171 14.28613,0 14.28613,-10.55932 0,-4.03738 -4.34795,-8.07477 -4.34795,-4.34795 -11.18045,-9.31704 -6.52193,-5.27966 -14.28613,-11.49102 -7.45364,-6.21136 -14.28613,-14.28613 -6.52193,-8.07477 -10.86989,-18.01295 -4.34795,-10.24875 -4.34795,-23.29261 0,-14.5967 5.27966,-25.77715 5.27966,-11.18045 14.5967,-18.63408 9.31704,-7.45364 21.73976,-11.18045 12.7333,-4.03739 27.01943,-4.03739 7.45363,0 14.90727,0.9317 7.45363,0.62114 13.35442,1.24228 6.8325,0.9317 13.35443,1.86341 l 0,58.07623 q -2.48454,-0.31057 -5.59023,-0.62114 -2.48454,-0.31057 -5.59022,-0.62114 -3.10568,-0.31056 -6.52193,-0.31056 -1.86341,0 -4.65852,0.31056 -2.79511,0 -5.27966,0.62114 -2.48454,0.62114 -4.34795,2.17398 -1.86341,1.55284 -1.86341,4.34795 0,2.48455 4.03738,6.21136 4.34796,3.72682 10.24875,8.69591 6.21136,4.96909 13.35443,11.49102 7.45363,6.52193 13.35443,14.90727 6.21136,8.38533 10.24874,18.94465 4.34796,10.55931 4.34796,23.60317 0,13.665 -4.34796,25.77715 -4.34795,11.80159 -13.66499,20.80807 -9.00648,8.6959 -23.29261,13.66499 -14.28613,5.27966 -33.85192,5.27966 -11.80159,0 -22.05033,-1.24227 -9.93818,-0.93171 -17.70239,-2.48455 -9.00647,-1.55284 -16.4601,-3.72681 l 0,-62.11362 z m -113.42528,37.26817 q 4.34795,0.9317 9.31704,1.55284 4.34795,0.62114 9.00647,1.24227 4.96909,0.31057 9.93818,0.31057 8.69591,0 16.77068,-1.86341 8.38534,-2.17398 14.90727,-6.8325 6.52193,-4.65852 10.24874,-11.80158 4.03739,-7.45364 4.03739,-18.01295 0,-9.00648 -4.65852,-17.08125 -4.34796,-8.07477 -11.49102,-15.5284 -6.8325,-7.45364 -14.90727,-14.28613 -7.7642,-6.8325 -14.90727,-13.665 -6.8325,-7.14307 -11.49102,-13.97556 -4.34795,-7.14307 -4.34795,-14.5967 0,-11.18045 7.14306,-17.08125 7.14307,-6.21136 22.98204,-6.21136 2.48455,0 4.96909,0.31057 2.79511,0 5.27966,0.31057 2.48454,0.31056 4.96909,0.31056 l 0,-8.07477 q -2.17398,0 -4.65852,-0.31056 -2.17398,-0.31057 -4.96909,-0.31057 -2.48455,-0.31057 -5.27966,-0.31057 -16.77068,0 -27.64056,7.7642 -10.86988,7.45364 -10.86988,23.60318 0,8.6959 4.34795,16.46011 4.65852,7.45363 11.49102,14.90726 7.14307,7.14307 14.90727,13.97557 8.07477,6.8325 14.90727,13.97556 7.14306,6.8325 11.49102,14.28613 4.65852,7.45364 4.65852,15.52841 0,14.90727 -10.24875,22.67147 -9.93818,7.7642 -27.64056,7.7642 -10.55931,0 -19.25522,-1.55284 -4.65852,-0.62114 -9.00647,-1.55284 l 0,8.07477 z m -26.08772,-37.26817 q 6.83249,2.17398 14.28613,3.41625 6.21136,1.55284 13.97556,2.48454 8.07477,0.93171 16.14954,0.93171 14.28613,0 14.28613,-10.55932 0,-4.03738 -4.34795,-8.07477 -4.34795,-4.34795 -11.18045,-9.31704 -6.52193,-5.27966 -14.28613,-11.49102 -7.45364,-6.21136 -14.28613,-14.28613 -6.52193,-8.07477 -10.86989,-18.01295 -4.34795,-10.24875 -4.34795,-23.29261 0,-14.5967 5.27966,-25.77715 5.27965,-11.18045 14.5967,-18.63408 9.31704,-7.45364 21.73976,-11.18045 12.73329,-4.03739 27.01943,-4.03739 7.45363,0 14.90726,0.9317 7.45364,0.62114 13.35443,1.24228 6.8325,0.9317 13.35443,1.86341 l 0,58.07623 q -2.48454,-0.31057 -5.59023,-0.62114 -2.48454,-0.31057 -5.59022,-0.62114 -3.10568,-0.31056 -6.52193,-0.31056 -1.86341,0 -4.65852,0.31056 -2.79511,0 -5.27966,0.62114 -2.48454,0.62114 -4.34795,2.17398 -1.86341,1.55284 -1.86341,4.34795 0,2.48455 4.03738,6.21136 4.34796,3.72682 10.24875,8.69591 6.21136,4.96909 13.35443,11.49102 7.45363,6.52193 13.35443,14.90727 6.21136,8.38533 10.24874,18.94465 4.34796,10.55931 4.34796,23.60317 0,13.665 -4.34796,25.77715 -4.34795,11.80159 -13.66499,20.80807 -9.00648,8.6959 -23.29261,13.66499 -14.28613,5.27966 -33.85192,5.27966 -11.80159,0 -22.05033,-1.24227 -9.93818,-0.93171 -17.70239,-2.48455 -9.00647,-1.55284 -16.4601,-3.72681 l 0,-62.11362 z m -137.56227,-142.86132 122.05326,0 0,54.34941 -55.90226,0 0,22.98204 54.97056,0 0,51.5543 -54.97056,0 0,23.91375 58.07624,0 0,54.34941 -124.22724,0 0,-207.14891 z m 101.2452,182.30347 0,-7.45364 -62.11362,0 0,-68.01441 59.00794,0 0,-7.45363 -59.00794,0 0,-67.08271 62.11362,0 0,-7.45363 -70.18839,0 0,157.45802 70.18839,0 z m -229.791266,-24.84545 22.671466,0 q 9.93818,0 13.35443,-3.72682 3.41625,-3.72682 3.41625,-10.55931 l 0,-143.17189 68.32498,0 0,154.66291 q 0,28.88283 -13.35443,40.68441 -13.04386,11.80159 -41.92669,11.80159 l -52.486006,0 0,-49.69089 z m 50.001466,24.84545 q 15.21783,0 21.42919,-6.52193 6.21137,-6.8325 6.21137,-20.18693 l 0,-130.74916 -8.38534,0 0,130.74916 q 0,9.62761 -3.41625,14.5967 -3.41625,4.65852 -15.83897,4.65852 l -25.15602,0 0,7.45364 25.15602,0 z" />
    </g>
  </g>
</svg>
